M48
;Layer_Color=9474304
;FILE_FORMAT=4:3
METRIC,TZ
;TYPE=PLATED
T1F00S00C0.300
T2F00S00C0.400
T3F00S00C0.500
T4F00S00C0.800
T5F00S00C3.100
;TYPE=NON_PLATED
T6F00S00C1.500
%
T01
X1350Y1325
Y3025
X3125Y3050
X3100Y1400
X4800
X5275Y2900
X4400Y3875
X5450Y4825
X6975Y5350
X9475Y5325
X10675Y5150
X11475Y5425
X13500Y5000
X13275Y6700
X12400Y2700
X10675Y3150
X9150
X9800Y2025
X11300Y500
X12650Y550
X7250Y1500
X7225Y2900
X3125Y4775
X1600Y4950
X1875Y12250
X3100Y12200
X700Y13800
X7700Y13900
X8325Y13375
X8950Y13925
X7775Y12600
X7050Y10700
Y9200
X8425Y8400
X11725Y11100
X11501Y11876
Y12676
X12725Y11800
X14400Y13200
X16050Y13075
X16618Y12550
X16175Y9900
X14951Y9975
X15300Y4850
X16350Y4375
X18425Y4975
X19725Y4900
X19100Y5975
X18175Y7450
X23150Y7750
X23150Y8875
X23150Y10025
X24100Y11350
Y12150
X22200Y12000
X19100Y13925
X20050Y3125
X21075Y3250
X22076Y2400
X22575Y1700
X23625Y2375
X23600Y500
X19900
X16500
X17200Y1425
X17400Y2500
X14000Y3700
X21775Y4750
X23825Y6025
X38752Y6726
X38625Y625
X38550Y18675
X39400Y18500
X24100Y15925
Y15125
X20300Y16675
X19925Y17700
X19100Y17125
Y15525
X16450Y15425
X15200Y17400
X14550Y18350
X15100Y23850
X16550Y23800
X17491Y24500
X18600Y23650
Y22325
X18576Y21151
X19874Y21551
X20650Y21025
X20776Y20226
X23850Y22375
Y23175
X13525Y23850
X12225
X10975Y23825
X10050Y24500
X8875Y23200
X7375Y23176
X5868Y23200
X4925Y22100
X5000Y20300
X6050Y21100
X3250Y20176
X2925Y22400
X700Y21425
X750Y18750
X1525Y16175
X3800Y17400
X6225Y17550
X7475Y18400
X8375Y16076
X8600Y15275
X9600Y14401
X10250Y14875
X10900Y15425
X11525Y15950
X9800Y16075
X10374Y19951
X11149Y19702
X11950Y19700
X11800Y20800
X4750Y24250
X750
X5200Y14500
T02
X39300Y7700
Y8300
Y8900
Y9500
Y10100
X40100
Y9500
Y8900
Y8300
Y7700
Y13700
X39300
Y14300
Y14900
Y15500
Y16100
X40100
Y15500
Y14900
Y14300
Y19700
Y20300
Y20900
Y21500
X40100Y22100
X39300
Y21500
Y20900
Y20300
Y19700
T03
X2125Y13776
X25600Y13700
X26400
Y10100
X25600
Y9300
X26400
Y8500
X25600
Y7700
X26400
Y14500
Y15300
X25600
Y14500
Y16100
X26400
Y19700
X25600
Y20500
X26400
Y21300
X25600
Y22100
X26400
T04
X5985Y1650
X8525
X11065
X12335Y4190
X9795
X7255
X3840Y13625
X22675Y5650
X3840Y16165
Y18705
Y21245
X1300Y22515
Y19975
Y17435
Y14895
T05
X27500Y2975
X33500Y2975
X43000Y9500
X43000Y15500
X43000Y21500
T06
X13735Y2390
X3100Y23915
M30
