G04*
G04 #@! TF.GenerationSoftware,Altium Limited,Altium Designer,18.0.11 (651)*
G04*
G04 Layer_Physical_Order=2*
G04 Layer_Color=16711680*
%FSLAX43Y43*%
%MOMM*%
G71*
G01*
G75*
%ADD10C,0.200*%
G04:AMPARAMS|DCode=37|XSize=1mm|YSize=0.9mm|CornerRadius=0.113mm|HoleSize=0mm|Usage=FLASHONLY|Rotation=90.000|XOffset=0mm|YOffset=0mm|HoleType=Round|Shape=RoundedRectangle|*
%AMROUNDEDRECTD37*
21,1,1.000,0.675,0,0,90.0*
21,1,0.775,0.900,0,0,90.0*
1,1,0.225,0.338,0.388*
1,1,0.225,0.338,-0.388*
1,1,0.225,-0.338,-0.388*
1,1,0.225,-0.338,0.388*
%
%ADD37ROUNDEDRECTD37*%
G04:AMPARAMS|DCode=40|XSize=1mm|YSize=0.9mm|CornerRadius=0.113mm|HoleSize=0mm|Usage=FLASHONLY|Rotation=0.000|XOffset=0mm|YOffset=0mm|HoleType=Round|Shape=RoundedRectangle|*
%AMROUNDEDRECTD40*
21,1,1.000,0.675,0,0,0.0*
21,1,0.775,0.900,0,0,0.0*
1,1,0.225,0.388,-0.338*
1,1,0.225,-0.388,-0.338*
1,1,0.225,-0.388,0.338*
1,1,0.225,0.388,0.338*
%
%ADD40ROUNDEDRECTD40*%
%ADD44R,1.651X0.610*%
%ADD45R,4.623X4.521*%
G04:AMPARAMS|DCode=48|XSize=1.8mm|YSize=1.15mm|CornerRadius=0.144mm|HoleSize=0mm|Usage=FLASHONLY|Rotation=270.000|XOffset=0mm|YOffset=0mm|HoleType=Round|Shape=RoundedRectangle|*
%AMROUNDEDRECTD48*
21,1,1.800,0.863,0,0,270.0*
21,1,1.513,1.150,0,0,270.0*
1,1,0.288,-0.431,-0.756*
1,1,0.288,-0.431,0.756*
1,1,0.288,0.431,0.756*
1,1,0.288,0.431,-0.756*
%
%ADD48ROUNDEDRECTD48*%
%ADD50R,1.500X0.300*%
%ADD51R,0.300X1.500*%
%ADD52O,1.500X0.300*%
%ADD54C,0.300*%
%ADD56C,0.600*%
%ADD57C,1.300*%
%ADD58C,4.000*%
%ADD59C,0.600*%
%ADD60C,0.800*%
%ADD61C,0.700*%
%ADD62C,1.200*%
%ADD63R,1.000X0.700*%
%ADD64O,1.000X0.700*%
%ADD65R,5.200X5.200*%
G04:AMPARAMS|DCode=66|XSize=3.35mm|YSize=1.25mm|CornerRadius=0.156mm|HoleSize=0mm|Usage=FLASHONLY|Rotation=90.000|XOffset=0mm|YOffset=0mm|HoleType=Round|Shape=RoundedRectangle|*
%AMROUNDEDRECTD66*
21,1,3.350,0.938,0,0,90.0*
21,1,3.038,1.250,0,0,90.0*
1,1,0.313,0.469,1.519*
1,1,0.313,0.469,-1.519*
1,1,0.313,-0.469,-1.519*
1,1,0.313,-0.469,1.519*
%
%ADD66ROUNDEDRECTD66*%
%ADD67R,0.200X0.200*%
G04:AMPARAMS|DCode=68|XSize=1.8mm|YSize=1.15mm|CornerRadius=0.144mm|HoleSize=0mm|Usage=FLASHONLY|Rotation=0.000|XOffset=0mm|YOffset=0mm|HoleType=Round|Shape=RoundedRectangle|*
%AMROUNDEDRECTD68*
21,1,1.800,0.863,0,0,0.0*
21,1,1.513,1.150,0,0,0.0*
1,1,0.288,0.756,-0.431*
1,1,0.288,-0.756,-0.431*
1,1,0.288,-0.756,0.431*
1,1,0.288,0.756,0.431*
%
%ADD68ROUNDEDRECTD68*%
G36*
X32375Y24475D02*
X31875D01*
Y24675D01*
X32375D01*
Y24475D01*
D02*
G37*
G36*
X31725Y23675D02*
X31225D01*
Y23875D01*
X31725D01*
Y23675D01*
D02*
G37*
G36*
X11050Y24630D02*
X10901Y24481D01*
X10588D01*
X10466Y24457D01*
X10362Y24388D01*
X10293Y24284D01*
X10269Y24163D01*
Y23487D01*
X10289Y23389D01*
X10275Y23375D01*
Y22575D01*
X10289Y22561D01*
X10269Y22462D01*
Y21788D01*
X10293Y21666D01*
X10362Y21562D01*
X10466Y21493D01*
X10588Y21469D01*
X11190D01*
X11475Y21184D01*
X11575Y21117D01*
X11692Y21094D01*
X11692Y21094D01*
X12308D01*
X12618Y20784D01*
X12618Y20784D01*
X12717Y20717D01*
X12834Y20694D01*
X13692D01*
X14052Y20334D01*
X14052Y20334D01*
X14152Y20267D01*
X14200Y20258D01*
Y18950D01*
X14900D01*
Y20694D01*
X15148D01*
X15194Y20648D01*
Y19950D01*
X15194Y19950D01*
X15200Y19920D01*
Y18950D01*
X20198D01*
X20287Y18770D01*
X20267Y18741D01*
X20244Y18624D01*
X20244Y18624D01*
Y17576D01*
X20244Y17576D01*
X20267Y17459D01*
X20334Y17359D01*
X20509Y17184D01*
X20509Y17184D01*
X20609Y17117D01*
X20650Y17109D01*
Y16500D01*
Y15500D01*
Y14500D01*
Y13500D01*
Y12500D01*
X22550D01*
Y12500D01*
X22715Y12464D01*
X22794Y12386D01*
Y11700D01*
X22614Y11576D01*
X22587Y11581D01*
X21812D01*
X21691Y11557D01*
X21587Y11488D01*
X21518Y11384D01*
X21494Y11262D01*
Y10732D01*
X20435D01*
X20407Y10760D01*
Y11300D01*
X20400Y11334D01*
Y12250D01*
X16200D01*
Y10350D01*
X16296D01*
X16317Y10243D01*
X16384Y10144D01*
X16494Y10033D01*
Y9676D01*
X15759Y8940D01*
X15692Y8841D01*
X15671Y8731D01*
X15213D01*
X15091Y8707D01*
X14987Y8638D01*
X14918Y8534D01*
X14894Y8413D01*
Y7738D01*
X14914Y7639D01*
X14900Y7625D01*
Y6825D01*
X14914Y6811D01*
X14894Y6713D01*
Y6037D01*
X14918Y5916D01*
X14987Y5812D01*
X15091Y5743D01*
X15213Y5719D01*
X15726D01*
X16123Y5323D01*
X16238Y5245D01*
X16375Y5218D01*
X17779D01*
X17916Y5245D01*
X18031Y5323D01*
X18302Y5594D01*
X18380Y5709D01*
X18407Y5846D01*
Y5946D01*
X18416Y5952D01*
X18613Y5860D01*
X18629Y5780D01*
X18740Y5615D01*
X18794Y5578D01*
Y3905D01*
X18500D01*
X18356Y3886D01*
X18223Y3830D01*
X18108Y3742D01*
X18020Y3627D01*
X17999Y3578D01*
X17841Y3490D01*
X17782Y3488D01*
X17686Y3507D01*
X17050D01*
X16913Y3480D01*
X16798Y3402D01*
X16348Y2952D01*
X16270Y2837D01*
X16243Y2700D01*
Y2382D01*
X15044D01*
X14910Y2355D01*
X14866Y2326D01*
X14774Y2360D01*
X14689Y2419D01*
X14661Y2638D01*
X14565Y2869D01*
X14413Y3068D01*
X14214Y3220D01*
X13983Y3316D01*
X13735Y3348D01*
X13487Y3316D01*
X13256Y3220D01*
X13057Y3068D01*
X12905Y2869D01*
X12809Y2638D01*
X12777Y2390D01*
X12809Y2142D01*
X12831Y2090D01*
X12711Y1910D01*
X11877D01*
X11807Y2079D01*
X11671Y2256D01*
X11494Y2392D01*
X11287Y2478D01*
X11065Y2507D01*
X10843Y2478D01*
X10636Y2392D01*
X10459Y2256D01*
X10323Y2079D01*
X10237Y1872D01*
X10208Y1650D01*
X10237Y1428D01*
X10323Y1221D01*
X10459Y1044D01*
X10636Y908D01*
X10843Y822D01*
X11065Y793D01*
X11287Y822D01*
X11452Y890D01*
X12746D01*
X12857Y780D01*
X13022Y669D01*
X13217Y630D01*
X14840D01*
X15035Y669D01*
X15200Y780D01*
X15239Y818D01*
X16556D01*
X16690Y845D01*
X16804Y921D01*
X16880Y1035D01*
X16880Y1035D01*
X16915Y1014D01*
X17005Y954D01*
X17024Y950D01*
X17200Y915D01*
X17348Y945D01*
X17709Y584D01*
X17709Y584D01*
X17808Y517D01*
X17925Y494D01*
X19069D01*
X19069Y494D01*
X19186Y517D01*
X19286Y584D01*
X19666Y964D01*
X19733Y1064D01*
X19756Y1181D01*
Y1938D01*
X19936Y2012D01*
X20363Y1585D01*
X20345Y1450D01*
X20364Y1306D01*
X20420Y1173D01*
X20508Y1058D01*
X20623Y970D01*
X20756Y914D01*
X20900Y895D01*
X21200D01*
X21344Y914D01*
X21477Y970D01*
X21592Y1058D01*
X21680Y1173D01*
X21736Y1306D01*
X21755Y1450D01*
X21736Y1594D01*
X21680Y1727D01*
X21592Y1842D01*
X21477Y1930D01*
X21344Y1986D01*
X21200Y2005D01*
X20900D01*
X20819Y1994D01*
X20356Y2457D01*
Y2728D01*
X20410Y2765D01*
X20434Y2800D01*
X20849D01*
X20880Y2779D01*
X21075Y2740D01*
X21270Y2779D01*
X21302Y2800D01*
X21525D01*
X21622Y2620D01*
X21605Y2595D01*
X21566Y2400D01*
X21605Y2205D01*
X21716Y2040D01*
X21881Y1929D01*
X22076Y1890D01*
X22070Y1722D01*
X22065Y1700D01*
X22104Y1505D01*
X22215Y1340D01*
X22380Y1229D01*
X22575Y1190D01*
X22770Y1229D01*
X22935Y1340D01*
X23046Y1505D01*
X23085Y1700D01*
X23046Y1895D01*
X22982Y1991D01*
Y2249D01*
X23627Y2894D01*
X24000D01*
Y204D01*
X204D01*
Y24796D01*
X2392D01*
X2453Y24616D01*
X2422Y24593D01*
X2270Y24394D01*
X2174Y24163D01*
X2142Y23915D01*
X2174Y23667D01*
X2270Y23436D01*
X2422Y23237D01*
X2621Y23085D01*
X2852Y22989D01*
X3100Y22957D01*
X3348Y22989D01*
X3579Y23085D01*
X3778Y23237D01*
X3930Y23436D01*
X4026Y23667D01*
X4058Y23915D01*
X4026Y24163D01*
X3930Y24394D01*
X3778Y24593D01*
X3747Y24616D01*
X3808Y24796D01*
X10981D01*
X11050Y24630D01*
D02*
G37*
G36*
X30950Y20800D02*
X30450D01*
Y21000D01*
X30950D01*
Y20800D01*
D02*
G37*
G36*
X27650D02*
X27150D01*
Y21000D01*
X27650D01*
Y20800D01*
D02*
G37*
G36*
X35200Y19231D02*
X31275D01*
Y22600D01*
X35200D01*
Y19231D01*
D02*
G37*
G36*
X26800D02*
X25200D01*
Y22644D01*
X26800D01*
Y19231D01*
D02*
G37*
G36*
X45500Y19100D02*
X38814D01*
X38745Y19146D01*
X38550Y19185D01*
X38355Y19146D01*
X38286Y19100D01*
X36133D01*
X36091Y19141D01*
X35992Y19208D01*
X35875Y19231D01*
X35800Y19403D01*
Y23900D01*
X45500D01*
Y19100D01*
D02*
G37*
G36*
X33050Y18025D02*
X32550D01*
Y18225D01*
X33050D01*
Y18025D01*
D02*
G37*
G36*
X45394Y13100D02*
X35800D01*
Y17900D01*
X38044D01*
X38085Y17859D01*
X38184Y17792D01*
X38301Y17769D01*
X38799D01*
X38799Y17769D01*
X38916Y17792D01*
X39015Y17859D01*
X39056Y17900D01*
X45394D01*
Y13100D01*
D02*
G37*
G36*
X31550Y17625D02*
X31050D01*
Y17825D01*
X31550D01*
Y17625D01*
D02*
G37*
G36*
X30950Y14800D02*
X30450D01*
Y15000D01*
X30950D01*
Y14800D01*
D02*
G37*
G36*
X27650D02*
X27150D01*
Y15000D01*
X27650D01*
Y14800D01*
D02*
G37*
G36*
X35170Y13293D02*
X35108Y13231D01*
X31275D01*
Y16600D01*
X35170D01*
Y13293D01*
D02*
G37*
G36*
X26800Y13231D02*
X25469D01*
X25200Y13500D01*
Y16342D01*
X25477Y16619D01*
X26800D01*
Y13231D01*
D02*
G37*
G36*
X31450Y12025D02*
X30950D01*
Y12225D01*
X31450D01*
Y12025D01*
D02*
G37*
G36*
X30650Y8800D02*
X30150D01*
Y9000D01*
X30650D01*
Y8800D01*
D02*
G37*
G36*
X27650D02*
X27150D01*
Y9000D01*
X27650D01*
Y8800D01*
D02*
G37*
G36*
X26800Y7231D02*
X25469D01*
X25200Y7500D01*
Y10700D01*
X26800D01*
Y7231D01*
D02*
G37*
G36*
X35200D02*
X34050D01*
X34040Y7229D01*
X33660D01*
X33650Y7231D01*
X31275D01*
Y10600D01*
X35200D01*
Y7231D01*
D02*
G37*
G36*
X44994Y7661D02*
X44433Y7100D01*
X39092D01*
X38947Y7197D01*
X38752Y7235D01*
X38557Y7197D01*
X38412Y7100D01*
X35800D01*
Y11900D01*
X44994D01*
Y7661D01*
D02*
G37*
G36*
X34100Y6825D02*
X33600D01*
Y7025D01*
X34100D01*
Y6825D01*
D02*
G37*
G36*
X23519Y10083D02*
Y7875D01*
X23519Y7875D01*
X23542Y7758D01*
X23609Y7659D01*
X24000Y7267D01*
Y4633D01*
X23673Y4306D01*
X19976D01*
X19976Y4306D01*
X19859Y4283D01*
X19760Y4216D01*
X19760Y4216D01*
X19572Y4028D01*
X19406Y4097D01*
Y5578D01*
X19460Y5615D01*
X19571Y5780D01*
X19610Y5975D01*
X19584Y6102D01*
X19575Y6151D01*
X19575Y6151D01*
X19571Y6170D01*
X19511Y6260D01*
X19604Y6371D01*
X19625Y6402D01*
X19680Y6485D01*
X19701Y6590D01*
X19891D01*
X20867Y5615D01*
X21032Y5504D01*
X21227Y5465D01*
X21892D01*
X21896Y5441D01*
X21976Y5247D01*
X22104Y5079D01*
X22272Y4951D01*
X22466Y4871D01*
X22675Y4843D01*
X22884Y4871D01*
X23078Y4951D01*
X23246Y5079D01*
X23374Y5247D01*
X23454Y5441D01*
X23482Y5650D01*
X23454Y5859D01*
X23374Y6053D01*
X23246Y6221D01*
X23078Y6349D01*
X22884Y6429D01*
X22846Y6434D01*
X22707Y6619D01*
Y8131D01*
X22680Y8265D01*
X22604Y8379D01*
X22490Y8455D01*
X22356Y8482D01*
X21707D01*
Y9475D01*
X22700D01*
X22900Y9675D01*
Y10447D01*
X22981Y10506D01*
X23077Y10525D01*
X23519Y10083D01*
D02*
G37*
%LPC*%
G36*
X7887Y24481D02*
X7113D01*
X6991Y24457D01*
X6887Y24388D01*
X6850Y24332D01*
X6817Y24323D01*
X6683D01*
X6650Y24332D01*
X6613Y24388D01*
X6509Y24457D01*
X6387Y24481D01*
X5613D01*
X5491Y24457D01*
X5387Y24388D01*
X5318Y24284D01*
X5294Y24163D01*
Y23487D01*
X5314Y23389D01*
X5300Y23375D01*
Y22575D01*
X5314Y22561D01*
X5294Y22462D01*
Y21788D01*
X5318Y21666D01*
X5387Y21562D01*
X5491Y21493D01*
X5613Y21469D01*
X6274D01*
X6584Y21159D01*
X6683Y21092D01*
X6800Y21069D01*
X6800Y21069D01*
X7558D01*
X7868Y20759D01*
X7868Y20759D01*
X7967Y20692D01*
X8084Y20669D01*
X8084Y20669D01*
X8917D01*
X9652Y19934D01*
X9652Y19934D01*
X9752Y19867D01*
X9869Y19844D01*
X9886D01*
X9903Y19756D01*
X10014Y19590D01*
X10179Y19480D01*
X10374Y19441D01*
X10569Y19480D01*
X10751Y19398D01*
X10789Y19342D01*
X10954Y19231D01*
X11149Y19192D01*
X11344Y19231D01*
X11414Y19278D01*
X11551Y19326D01*
X11683Y19277D01*
X11755Y19229D01*
X11950Y19190D01*
X12145Y19229D01*
X12310Y19340D01*
X12421Y19505D01*
X12460Y19700D01*
X12421Y19895D01*
X12310Y20060D01*
X12145Y20171D01*
X11965Y20207D01*
X10980Y21191D01*
X10881Y21258D01*
X10764Y21281D01*
X10764Y21281D01*
X10302D01*
X9706Y21876D01*
Y22462D01*
X9686Y22561D01*
X9700Y22575D01*
Y23375D01*
X9686Y23389D01*
X9706Y23487D01*
Y24163D01*
X9682Y24284D01*
X9613Y24388D01*
X9509Y24457D01*
X9387Y24481D01*
X8613D01*
X8491Y24457D01*
X8387Y24388D01*
X8350Y24332D01*
X8317Y24323D01*
X8183D01*
X8150Y24332D01*
X8113Y24388D01*
X8009Y24457D01*
X7887Y24481D01*
D02*
G37*
G36*
X3840Y22102D02*
X3618Y22073D01*
X3411Y21987D01*
X3234Y21851D01*
X3155Y21748D01*
X2993Y21716D01*
X2827Y21605D01*
X2090Y20868D01*
X2001Y20735D01*
X1891Y20688D01*
X1789Y20671D01*
X1729Y20717D01*
X1522Y20803D01*
X1300Y20832D01*
X1078Y20803D01*
X871Y20717D01*
X694Y20581D01*
X558Y20404D01*
X472Y20197D01*
X443Y19975D01*
X472Y19753D01*
X558Y19546D01*
X694Y19369D01*
X871Y19233D01*
X1078Y19147D01*
X1300Y19118D01*
X1522Y19147D01*
X1729Y19233D01*
X1760Y19257D01*
X1940Y19168D01*
Y18242D01*
X1760Y18153D01*
X1729Y18177D01*
X1522Y18263D01*
X1300Y18292D01*
X1078Y18263D01*
X871Y18177D01*
X694Y18041D01*
X558Y17864D01*
X472Y17657D01*
X443Y17435D01*
X472Y17213D01*
X558Y17006D01*
X694Y16829D01*
X871Y16693D01*
X1078Y16607D01*
X1300Y16578D01*
X1522Y16607D01*
X1729Y16693D01*
X1760Y16717D01*
X1940Y16628D01*
Y15702D01*
X1760Y15613D01*
X1729Y15637D01*
X1522Y15723D01*
X1300Y15752D01*
X1078Y15723D01*
X871Y15637D01*
X694Y15501D01*
X558Y15324D01*
X472Y15117D01*
X443Y14895D01*
X472Y14673D01*
X558Y14466D01*
X694Y14289D01*
X871Y14153D01*
X1078Y14067D01*
X1300Y14038D01*
X1395Y14050D01*
X1454Y14002D01*
X1535Y13887D01*
X1520Y13776D01*
X1541Y13619D01*
X1601Y13473D01*
X1697Y13348D01*
X1823Y13252D01*
X1968Y13191D01*
X2125Y13170D01*
X2282Y13191D01*
X2428Y13252D01*
X2553Y13348D01*
X2649Y13473D01*
X2710Y13619D01*
X2725Y13732D01*
X2811Y13790D01*
X2921Y13955D01*
X2960Y14150D01*
Y15620D01*
X3140Y15681D01*
X3234Y15559D01*
X3411Y15423D01*
X3618Y15337D01*
X3840Y15308D01*
X4062Y15337D01*
X4269Y15423D01*
X4446Y15559D01*
X4582Y15736D01*
X4668Y15943D01*
X4697Y16165D01*
X4668Y16387D01*
X4582Y16594D01*
X4446Y16771D01*
X4269Y16907D01*
X4062Y16993D01*
X3840Y17022D01*
X3618Y16993D01*
X3411Y16907D01*
X3234Y16771D01*
X3140Y16649D01*
X2960Y16710D01*
Y18160D01*
X3140Y18221D01*
X3234Y18099D01*
X3411Y17963D01*
X3618Y17877D01*
X3840Y17848D01*
X4062Y17877D01*
X4269Y17963D01*
X4446Y18099D01*
X4582Y18276D01*
X4668Y18483D01*
X4697Y18705D01*
X4684Y18803D01*
X4855Y18888D01*
X5851Y17891D01*
X5754Y17745D01*
X5715Y17550D01*
X5754Y17355D01*
X5864Y17190D01*
X6030Y17079D01*
X6225Y17040D01*
X6420Y17079D01*
X6585Y17190D01*
X6696Y17355D01*
X6735Y17550D01*
X6696Y17745D01*
X6585Y17910D01*
X6531Y17947D01*
Y17950D01*
X6508Y18067D01*
X6441Y18166D01*
X6441Y18166D01*
X4291Y20317D01*
X4284Y20373D01*
X4320Y20542D01*
X4446Y20639D01*
X4582Y20816D01*
X4668Y21023D01*
X4697Y21245D01*
X4668Y21467D01*
X4582Y21674D01*
X4446Y21851D01*
X4269Y21987D01*
X4062Y22073D01*
X3840Y22102D01*
D02*
G37*
G36*
X7475Y18910D02*
X7280Y18871D01*
X7115Y18760D01*
X7004Y18595D01*
X6965Y18400D01*
X7004Y18205D01*
X7115Y18039D01*
X7280Y17929D01*
X7475Y17890D01*
X7670Y17929D01*
X7768Y17994D01*
X9626D01*
X9695Y17828D01*
X8440Y16573D01*
X8375Y16586D01*
X8180Y16547D01*
X8015Y16436D01*
X7904Y16271D01*
X7866Y16076D01*
X7904Y15881D01*
X8015Y15715D01*
X8180Y15605D01*
X8138Y15483D01*
X8129Y15470D01*
X8090Y15275D01*
X8129Y15080D01*
X8240Y14915D01*
X8336Y14850D01*
X8380Y14639D01*
X8072Y14331D01*
X7955D01*
X7895Y14371D01*
X7700Y14410D01*
X7505Y14371D01*
X7340Y14260D01*
X7229Y14095D01*
X7190Y13900D01*
X7229Y13705D01*
X7340Y13540D01*
X7505Y13429D01*
X7700Y13390D01*
X7843Y13235D01*
X7854Y13180D01*
X7965Y13015D01*
X8130Y12904D01*
X8325Y12865D01*
X8520Y12904D01*
X8685Y13015D01*
X8689Y13019D01*
X10929D01*
X11023Y12839D01*
X10991Y12676D01*
X11030Y12481D01*
X11140Y12315D01*
Y12236D01*
X11030Y12071D01*
X10991Y11876D01*
X11030Y11680D01*
X11140Y11515D01*
X11305Y11405D01*
X11501Y11366D01*
X11696Y11405D01*
X11861Y11515D01*
X11972Y11680D01*
X11980Y11724D01*
X12350Y12094D01*
X14200D01*
Y11335D01*
X14193Y11300D01*
Y10376D01*
X14194Y10374D01*
Y10279D01*
X14180Y10270D01*
X14000Y10367D01*
Y10675D01*
X13800Y10875D01*
X12800D01*
X12600Y10675D01*
Y9875D01*
X12614Y9861D01*
X12594Y9763D01*
Y9228D01*
X12223Y8856D01*
X12145Y8741D01*
X12118Y8604D01*
Y7825D01*
X11125D01*
X10925Y7625D01*
Y6825D01*
X10939Y6811D01*
X10919Y6713D01*
Y6037D01*
X10943Y5916D01*
X11012Y5812D01*
X11040Y5674D01*
X11004Y5620D01*
X10965Y5425D01*
X11004Y5230D01*
X11115Y5065D01*
X11280Y4954D01*
X11475Y4915D01*
X11670Y4954D01*
X11835Y5065D01*
X11946Y5230D01*
X11985Y5425D01*
X11962Y5539D01*
X11996Y5661D01*
X12087Y5734D01*
X12134Y5743D01*
X12238Y5812D01*
X12307Y5916D01*
X12331Y6037D01*
Y6576D01*
X12593Y6838D01*
X12625Y6825D01*
X12825Y6625D01*
X13825D01*
X14025Y6825D01*
Y7625D01*
X14011Y7639D01*
X14031Y7737D01*
Y8265D01*
X14835Y9069D01*
X15274D01*
X15274Y9069D01*
X15391Y9092D01*
X15490Y9159D01*
X15766Y9435D01*
X15766Y9435D01*
X15833Y9534D01*
X15856Y9651D01*
Y9723D01*
X15857Y9727D01*
Y10350D01*
X15900D01*
Y12250D01*
X15291D01*
X15283Y12291D01*
X15216Y12391D01*
X14991Y12616D01*
X14891Y12683D01*
X14774Y12706D01*
X14774Y12706D01*
X14112D01*
X13983Y12826D01*
X13950Y13000D01*
X13950D01*
X13950Y13000D01*
Y13500D01*
Y14500D01*
Y15500D01*
Y16500D01*
Y17500D01*
Y18700D01*
X12050D01*
Y18606D01*
X7939D01*
X7835Y18760D01*
X7670Y18871D01*
X7475Y18910D01*
D02*
G37*
G36*
X9888Y8731D02*
X9113D01*
X8991Y8707D01*
X8887Y8638D01*
X8818Y8534D01*
X8794Y8412D01*
Y7737D01*
X8800Y7706D01*
X8794Y7675D01*
X8794Y7675D01*
Y7410D01*
X8484Y7100D01*
X8417Y7000D01*
X8394Y6883D01*
X8394Y6883D01*
Y5867D01*
X8394Y5867D01*
X8417Y5750D01*
X8484Y5650D01*
X8850Y5284D01*
X8850Y5284D01*
X8950Y5217D01*
X8988Y5210D01*
X9004Y5130D01*
X9115Y4965D01*
X9130Y4954D01*
X9139Y4732D01*
X9053Y4619D01*
X8967Y4412D01*
X8938Y4190D01*
X8967Y3968D01*
X9053Y3761D01*
X9189Y3584D01*
X9366Y3448D01*
X9573Y3362D01*
X9795Y3333D01*
X10017Y3362D01*
X10224Y3448D01*
X10401Y3584D01*
X10537Y3761D01*
X10623Y3968D01*
X10652Y4190D01*
X10623Y4412D01*
X10537Y4619D01*
X10401Y4796D01*
X10381Y4812D01*
Y5574D01*
X10381Y5574D01*
X10358Y5691D01*
X10291Y5790D01*
X10291Y5790D01*
X10206Y5875D01*
Y6036D01*
X10206Y6037D01*
Y6712D01*
X10186Y6811D01*
X10200Y6825D01*
Y7625D01*
X10186Y7639D01*
X10206Y7737D01*
Y8412D01*
X10182Y8534D01*
X10113Y8638D01*
X10009Y8707D01*
X9888Y8731D01*
D02*
G37*
G36*
X7188Y8731D02*
X6412D01*
X6291Y8707D01*
X6187Y8638D01*
X6118Y8534D01*
X6094Y8412D01*
Y7737D01*
X6114Y7639D01*
X6100Y7625D01*
Y6825D01*
X6114Y6811D01*
X6094Y6712D01*
Y6037D01*
X6118Y5916D01*
X6187Y5812D01*
X6291Y5743D01*
X6412Y5719D01*
X6504Y5546D01*
X6503Y5539D01*
X6466Y5350D01*
X6504Y5155D01*
X6615Y4990D01*
X6643Y4971D01*
X6644Y4950D01*
X6626Y4766D01*
X6513Y4619D01*
X6427Y4412D01*
X6398Y4190D01*
X6427Y3968D01*
X6513Y3761D01*
X6649Y3584D01*
X6826Y3448D01*
X7033Y3362D01*
X7255Y3333D01*
X7477Y3362D01*
X7684Y3448D01*
X7861Y3584D01*
X7997Y3761D01*
X8083Y3968D01*
X8112Y4190D01*
X8083Y4412D01*
X7997Y4619D01*
X7906Y4738D01*
Y6900D01*
X7906Y6900D01*
X7883Y7017D01*
X7816Y7116D01*
X7816Y7116D01*
X7506Y7427D01*
Y7675D01*
X7500Y7706D01*
X7506Y7737D01*
Y8412D01*
X7482Y8534D01*
X7413Y8638D01*
X7309Y8707D01*
X7188Y8731D01*
D02*
G37*
G36*
X8525Y2507D02*
X8303Y2478D01*
X8096Y2392D01*
X7919Y2256D01*
X7783Y2079D01*
X7697Y1872D01*
X7668Y1650D01*
X7697Y1428D01*
X7783Y1221D01*
X7919Y1044D01*
X8096Y908D01*
X8303Y822D01*
X8525Y793D01*
X8747Y822D01*
X8954Y908D01*
X9131Y1044D01*
X9267Y1221D01*
X9353Y1428D01*
X9382Y1650D01*
X9353Y1872D01*
X9267Y2079D01*
X9131Y2256D01*
X8954Y2392D01*
X8747Y2478D01*
X8525Y2507D01*
D02*
G37*
G36*
X5985D02*
X5763Y2478D01*
X5556Y2392D01*
X5379Y2256D01*
X5243Y2079D01*
X5157Y1872D01*
X5128Y1650D01*
X5157Y1428D01*
X5243Y1221D01*
X5379Y1044D01*
X5556Y908D01*
X5763Y822D01*
X5985Y793D01*
X6207Y822D01*
X6414Y908D01*
X6591Y1044D01*
X6727Y1221D01*
X6813Y1428D01*
X6842Y1650D01*
X6813Y1872D01*
X6727Y2079D01*
X6591Y2256D01*
X6414Y2392D01*
X6207Y2478D01*
X5985Y2507D01*
D02*
G37*
%LPD*%
D10*
X26000Y20900D02*
X27200D01*
X26000Y14900D02*
X27200D01*
X26000Y8900D02*
X27200D01*
X16100Y9531D02*
Y11250D01*
X13475Y6375D02*
X14300Y7200D01*
X26206Y5275D02*
X28453D01*
X24131Y3200D02*
X26206Y5275D01*
X23500Y3200D02*
X24131D01*
X26041Y5675D02*
X28618D01*
X23966Y3600D02*
X26041Y5675D01*
X23276Y3600D02*
X23966D01*
X17312Y1313D02*
X17362Y1362D01*
X25875Y6075D02*
X28784D01*
X23800Y4000D02*
X25875Y6075D01*
X19976Y4000D02*
X23800D01*
X25342Y12925D02*
X35235D01*
X35475Y13166D01*
X23417Y14850D02*
X25342Y12925D01*
X8600Y15476D02*
X8624D01*
X20850Y23025D02*
X21800Y23975D01*
X20600Y21050D02*
X20850D01*
X20050Y20226D02*
X20776D01*
X24100Y12150D02*
X24149D01*
X24574Y11725D01*
X24125Y11325D02*
X28534D01*
X24100Y11350D02*
X24125Y11325D01*
X22762Y12850D02*
X23100Y12512D01*
Y10934D02*
Y12512D01*
Y10934D02*
X23825Y10209D01*
X23500Y11100D02*
Y12800D01*
Y11100D02*
X24225Y10375D01*
X22950Y13350D02*
X23500Y12800D01*
X24499Y18925D02*
X24931D01*
X22474Y16900D02*
X24499Y18925D01*
X24675Y18525D02*
X25075D01*
X23060Y16910D02*
X24675Y18525D01*
X23050Y16910D02*
X23060D01*
X22566Y15850D02*
X24841Y18125D01*
X24700Y16275D02*
X25350Y16925D01*
X24100Y15125D02*
X24148D01*
X24700Y15676D01*
Y16275D01*
X24100Y15925D02*
Y16241D01*
X25184Y17325D01*
X22644Y15362D02*
X25006Y17725D01*
X31100D01*
X25350Y16925D02*
X28509D01*
X19610Y21350D02*
X19900D01*
X19949Y21399D02*
Y21751D01*
X20074Y21651D02*
Y22274D01*
X25075Y18525D02*
X35650D01*
X22550Y16410D02*
X23050Y16910D01*
X23250Y18669D02*
Y23450D01*
X22431Y17850D02*
X23250Y18669D01*
X21600Y17850D02*
X22431D01*
X22850Y18834D02*
Y23650D01*
X22366Y18350D02*
X22850Y18834D01*
X21600Y18350D02*
X22366D01*
X22450Y19000D02*
Y23816D01*
X22250Y18800D02*
X22450Y19000D01*
X20726Y18800D02*
X22250D01*
X24841Y18125D02*
X32600D01*
X24931Y18925D02*
X35875D01*
X24931Y18925D02*
X24931Y18925D01*
X22200Y16900D02*
X22474D01*
X20550Y18624D02*
X20726Y18800D01*
X25184Y17325D02*
X28675D01*
X19200Y23000D02*
X20175Y23975D01*
X18526Y21176D02*
X18776D01*
X18550Y19900D02*
Y21152D01*
X22150Y16850D02*
X22200Y16900D01*
X21600Y16850D02*
X22150D01*
X22644Y15350D02*
Y15362D01*
X22550Y16400D02*
Y16410D01*
X21600Y14850D02*
X23417D01*
X23352Y14350D02*
X25177Y12525D01*
X21600Y14350D02*
X23352D01*
X25177Y12525D02*
X32750D01*
X21600Y15350D02*
X22644D01*
X15575Y8075D02*
X15975Y8475D01*
X16400Y8583D02*
X17200Y9383D01*
Y9931D01*
X15975Y8724D02*
X16800Y9549D01*
X15975Y8475D02*
Y8724D01*
X16800Y9549D02*
Y10097D01*
X16400Y7150D02*
Y8583D01*
X16800Y10097D02*
Y10160D01*
X16800Y10097D02*
X16800Y10097D01*
X15551Y9727D02*
Y11300D01*
X15550Y9726D02*
X15551Y9727D01*
X15550Y9651D02*
Y9726D01*
X15274Y9375D02*
X15550Y9651D01*
X14550Y10376D02*
X14951Y9975D01*
X15394Y8825D02*
X16100Y9531D01*
X9300Y5500D02*
X9475Y5325D01*
X9067Y5500D02*
X9300D01*
X8700Y5867D02*
X9067Y5500D01*
X7700Y14025D02*
X8199D01*
X6800Y8075D02*
X7200Y7675D01*
X8375Y13325D02*
X13000D01*
X10227Y17351D02*
X12999D01*
X9200Y16324D02*
X10227Y17351D01*
X10150Y17850D02*
X13000D01*
X8375Y16076D02*
X10150Y17850D01*
X9200Y16052D02*
Y16324D01*
X8624Y15476D02*
X9200Y16052D01*
X9800Y16075D02*
X9900D01*
X9649Y15475D02*
X10076D01*
X8199Y14025D02*
X9649Y15475D01*
X10076D02*
X11152Y16551D01*
X9600Y14401D02*
X9726Y14275D01*
X8600Y15275D02*
Y15476D01*
X9726Y14275D02*
X10500D01*
X8950Y13925D02*
X9074Y13801D01*
X10575Y14350D02*
X13000D01*
X10500Y14275D02*
X10575Y14350D01*
X8325Y13375D02*
X8375Y13325D01*
X9074Y13801D02*
X9849D01*
X9100Y7675D02*
X9500Y8075D01*
X9100Y7283D02*
Y7675D01*
X8700Y6883D02*
X9100Y7283D01*
X8700Y5867D02*
Y6883D01*
X13000Y13325D02*
Y13350D01*
X9849Y13801D02*
X9898Y13850D01*
X13000D01*
X10175Y14850D02*
X10200Y14825D01*
X11149D01*
X10800Y15350D02*
X10850Y15300D01*
X11500D01*
X11550Y15350D02*
X13000D01*
X11500Y15300D02*
X11550Y15350D01*
X11174Y14850D02*
X13000D01*
X11149Y14825D02*
X11174Y14850D01*
X10175Y14850D02*
X10175Y14850D01*
X12000Y16350D02*
X13000D01*
X11799Y16551D02*
X12000Y16350D01*
X11152Y16551D02*
X11799D01*
X10776Y16951D02*
X11965D01*
X9900Y16075D02*
X10776Y16951D01*
X12999Y17351D02*
X13000Y17350D01*
X12016Y16900D02*
X12950D01*
X11965Y16951D02*
X12016Y16900D01*
X11500Y15850D02*
X13000D01*
X12950Y16900D02*
X13000Y16850D01*
X11501Y11876D02*
X11699D01*
X12223Y12400D02*
X14774D01*
X11600Y12850D02*
X13000D01*
X11501Y12751D02*
X11600Y12850D01*
X7575Y18300D02*
X12950D01*
X13000Y15850D02*
Y15850D01*
X11699Y11876D02*
X12223Y12400D01*
X17362Y1362D02*
X17925Y800D01*
X19100Y3689D02*
Y5975D01*
X18900Y3489D02*
X19100Y3689D01*
X19450Y3474D02*
X19976Y4000D01*
X19450Y1181D02*
Y3474D01*
X9500Y4485D02*
X10075D01*
X9900Y5749D02*
Y6225D01*
X9750Y6375D02*
X9900Y6225D01*
X9500Y6375D02*
X9750D01*
X9900Y5749D02*
X10075Y5574D01*
X9500Y4485D02*
X9795Y4190D01*
X10075Y4485D02*
Y5574D01*
X14708Y9375D02*
X15274D01*
X13408Y8075D02*
X14708Y9375D01*
X13325Y8075D02*
X13408D01*
X15017Y8825D02*
X15394D01*
X14300Y8108D02*
X15017Y8825D01*
X14300Y7200D02*
Y8108D01*
X16400Y7150D02*
X17175Y6375D01*
X13325Y6375D02*
X13475D01*
X14550Y10376D02*
X14550Y10376D01*
X6225Y17550D02*
Y17950D01*
X3950Y20225D02*
X6225Y17950D01*
X3425Y20225D02*
X3950D01*
X7475Y18400D02*
X7575Y18300D01*
X6800Y6375D02*
X6975Y6200D01*
Y5525D02*
Y6200D01*
X19176Y20916D02*
X19610Y21350D01*
X19176Y20903D02*
Y20916D01*
X19100Y20827D02*
X19176Y20903D01*
X19100Y19950D02*
Y20827D01*
X19600Y20774D02*
X19776Y20950D01*
X19600Y19950D02*
Y20774D01*
X20850Y21050D02*
Y23025D01*
X20500Y20950D02*
X20600Y21050D01*
X19776Y20950D02*
X20500D01*
X19200Y22574D02*
Y23000D01*
Y22574D02*
X19200Y22574D01*
Y22076D02*
Y22574D01*
X19200Y22076D02*
X19200Y22076D01*
X19200Y21617D02*
Y22076D01*
X19100Y21517D02*
X19200Y21617D01*
X19100Y21500D02*
Y21517D01*
X18776Y21176D02*
X19100Y21500D01*
X17950Y21675D02*
X18600Y22325D01*
X17525Y19925D02*
Y22950D01*
X16875Y21900D02*
X17000Y21775D01*
Y19950D02*
Y21775D01*
X15256Y22150D02*
X16550Y20856D01*
Y19900D02*
Y20856D01*
X15440Y21400D02*
X16000Y20840D01*
Y19950D02*
Y20840D01*
X17950Y20925D02*
Y21675D01*
Y20925D02*
X18050Y20825D01*
Y19900D02*
Y20825D01*
X18526Y21176D02*
X18550Y21152D01*
X18900Y3350D02*
Y3489D01*
X7600Y4535D02*
Y6900D01*
X7255Y4190D02*
X7600Y4535D01*
X7200Y7300D02*
Y7675D01*
Y7300D02*
X7600Y6900D01*
X23850Y22375D02*
X23899D01*
X24473Y22950D01*
X23850Y23175D02*
X24050Y23375D01*
X23575Y23775D02*
X31275D01*
X23375Y24175D02*
X33050D01*
X23209Y24575D02*
X26325D01*
X22450Y23816D02*
X23209Y24575D01*
X22850Y23650D02*
X23375Y24175D01*
X23250Y23450D02*
X23575Y23775D01*
X21250Y20700D02*
Y21925D01*
X20776Y20226D02*
X21250Y20700D01*
X19900Y21350D02*
X19949Y21399D01*
X17525Y22950D02*
X18400Y23825D01*
X17525Y19925D02*
X17550Y19900D01*
X8975Y23350D02*
X9000Y23325D01*
X9869Y20150D02*
X10250D01*
X9044Y20975D02*
X9869Y20150D01*
X9209Y21375D02*
X10009Y20575D01*
X8084Y20975D02*
X9044D01*
X7684Y21375D02*
X8084Y20975D01*
X6800Y21375D02*
X7684D01*
X6050Y22125D02*
X6800Y21375D01*
X6000Y22125D02*
X6050D01*
X10009Y20575D02*
X10598D01*
X8250Y21375D02*
X9209D01*
X7500Y22125D02*
X8250Y21375D01*
X9000Y22125D02*
X9025D01*
X10175Y20975D01*
X16725Y22150D02*
X16875Y22000D01*
Y21900D02*
Y22000D01*
X11317Y21775D02*
X11692Y21400D01*
X14269Y20550D02*
X14550D01*
X8200Y1975D02*
X8525Y1650D01*
X25175Y6525D02*
X25550D01*
X23825Y7875D02*
X25175Y6525D01*
X23825Y7875D02*
Y10209D01*
X24225Y8042D02*
X25342Y6925D01*
X24225Y8042D02*
Y10375D01*
X24000Y12250D02*
X24049D01*
X25550Y6525D02*
X25550Y6525D01*
X38550D01*
X25342Y6925D02*
X33650D01*
X12950Y18300D02*
X13000Y18350D01*
X16600Y10360D02*
X16800Y10160D01*
X16600Y10360D02*
Y11250D01*
X17100Y10426D02*
Y11250D01*
Y10426D02*
X17200Y10326D01*
Y9931D02*
Y10326D01*
X17200Y9931D02*
X17200Y9931D01*
X17050Y11300D02*
X17100Y11250D01*
X17550Y11300D02*
X17600Y11250D01*
Y9765D02*
Y11250D01*
X17600Y9765D02*
X17600Y9765D01*
X17600Y8400D02*
Y9765D01*
X17500Y8300D02*
X17600Y8400D01*
X20931Y1450D02*
X21050D01*
X20050Y2331D02*
Y3125D01*
Y2331D02*
X20931Y1450D01*
X22076Y2400D02*
X23276Y3600D01*
X22676Y2376D02*
X23500Y3200D01*
X22575Y1700D02*
X22676Y1801D01*
Y2376D01*
X17925Y800D02*
X19069D01*
X19450Y1181D01*
X21050Y1450D02*
X21100D01*
X18650D02*
X18700D01*
X18450D02*
X18650D01*
X17400Y2500D02*
X18450Y1450D01*
X10598Y20575D02*
X10974Y20199D01*
Y19877D02*
X11149Y19702D01*
X10764Y20975D02*
X11950Y19789D01*
X10175Y20975D02*
X10764D01*
X10250Y20150D02*
X10400Y20000D01*
X11950Y19700D02*
Y19789D01*
X10974Y19877D02*
Y20199D01*
X14774Y12400D02*
X15000Y12174D01*
X10750Y22150D02*
X11125Y21775D01*
X11317D01*
X11692Y21400D02*
X12434D01*
X13625Y23850D02*
X13725D01*
X21600Y15850D02*
X22566D01*
X21650Y16400D02*
X22550D01*
X28618Y5675D02*
X43440D01*
X28618Y5675D02*
X28618Y5675D01*
X28453Y5275D02*
X43606D01*
X28453Y5275D02*
X28453Y5275D01*
X24574Y11725D02*
X28700D01*
X24975Y12125D02*
X29450D01*
X23250Y13850D02*
X24975Y12125D01*
X21600Y13850D02*
X23250D01*
X14550Y19900D02*
Y20550D01*
X16000Y19950D02*
X16050Y19900D01*
X21550Y17400D02*
X21600Y17350D01*
X16550Y11300D02*
X16600Y11250D01*
X16050Y11300D02*
X16100Y11250D01*
X21600Y12850D02*
X22762D01*
X17000Y19950D02*
X17050Y19900D01*
X15000Y11350D02*
X15050Y11300D01*
X15500Y19950D02*
X15550Y19900D01*
X21600Y13350D02*
X22950D01*
X21100Y14850D02*
X21600D01*
X20050Y19900D02*
Y20226D01*
X14550Y21400D02*
X15440D01*
X15500Y19950D02*
Y20774D01*
X14384Y21000D02*
X15274D01*
X15500Y20774D01*
X24050Y23375D02*
X28666D01*
X12250Y22150D02*
X13000Y21400D01*
X15225Y22150D02*
X15256D01*
X13725D02*
X13800D01*
X14550Y21400D01*
X13984D02*
X14384Y21000D01*
X13819D02*
X14269Y20550D01*
X20550Y17576D02*
Y18624D01*
X20726Y17400D02*
X21550D01*
X20550Y17576D02*
X20726Y17400D01*
X21600Y15350D02*
X21650Y15400D01*
X21600Y15850D02*
X21650Y15900D01*
X21600Y16350D02*
X21650Y16400D01*
X12834Y21000D02*
X13819D01*
X12434Y21400D02*
X12834Y21000D01*
X13000Y21400D02*
X13984D01*
X38550Y550D02*
Y600D01*
X38550Y550D02*
X38550Y550D01*
X30125Y550D02*
X38550D01*
X32900Y16135D02*
X34350D01*
X32900D02*
Y17000D01*
X32175Y17725D02*
X32900Y17000D01*
X33000Y10135D02*
X34350D01*
X33000D02*
Y10925D01*
X31800Y12125D02*
X33000Y10925D01*
X21100Y13850D02*
X21600D01*
X15000Y11350D02*
Y12174D01*
X21100Y14350D02*
X21600D01*
X21100Y13350D02*
X21600D01*
X21100Y12850D02*
X21600D01*
X21100Y16350D02*
X21600D01*
X21100Y16850D02*
X21600D01*
X5985Y1650D02*
X6300Y1965D01*
X24473Y22950D02*
X28500D01*
X28800Y15175D02*
Y16634D01*
X28509Y16925D02*
X28800Y16634D01*
X39575Y6075D02*
X43000Y9500D01*
X19550Y19900D02*
X19600Y19950D01*
X19050Y19900D02*
X19100Y19950D01*
X43000Y21500D02*
X45700Y18800D01*
Y7369D02*
Y18800D01*
X43606Y5275D02*
X45700Y7369D01*
X43440Y5675D02*
X45300Y7535D01*
X43000Y15500D02*
X45300Y13200D01*
Y7535D02*
Y13200D01*
X27700Y2975D02*
X30125Y550D01*
X36125Y18675D02*
X38550D01*
X35875Y18925D02*
X36125Y18675D01*
X35650Y18525D02*
X35900Y18275D01*
X38101D02*
X38301Y18075D01*
X35900Y18275D02*
X38101D01*
X38301Y18075D02*
X38799D01*
X39023Y18300D01*
X39350D01*
X33900Y22200D02*
X33965Y22135D01*
X33000Y22200D02*
X33900D01*
X33000D02*
Y23100D01*
X32325Y23775D02*
X33000Y23100D01*
X33965Y22135D02*
X34350D01*
X31675Y23775D02*
X32325D01*
X31500Y17725D02*
X32175D01*
X30900Y20900D02*
X32000D01*
X29575D02*
X30400D01*
X30900Y14900D02*
X32000D01*
X30600Y8900D02*
X32000D01*
X31400Y12125D02*
X31800D01*
X33870Y11405D02*
X34350D01*
X32750Y12525D02*
X33870Y11405D01*
X38100Y15500D02*
X38168D01*
X29450Y12125D02*
X31000D01*
X29450Y12125D02*
X29450Y12125D01*
X34350Y17405D02*
X34870D01*
X35475Y16799D01*
Y13166D02*
Y16799D01*
X26325Y24575D02*
X31925D01*
X26325Y24575D02*
X26325Y24575D01*
X32325D02*
X35093D01*
X33050Y24175D02*
X33820Y23405D01*
X34350D01*
X33000Y18125D02*
X35475D01*
X29525Y14900D02*
X30500D01*
X29200Y15225D02*
X29525Y14900D01*
X29200Y15225D02*
Y16800D01*
X28675Y17325D02*
X29200Y16800D01*
X28800Y21275D02*
Y22650D01*
X29200Y21275D02*
Y22841D01*
Y21275D02*
X29575Y20900D01*
X28666Y23375D02*
X29200Y22841D01*
X29575Y8900D02*
X30200D01*
X28425D02*
X28800Y9275D01*
X29200D02*
X29575Y8900D01*
X29200Y9275D02*
Y11225D01*
X28700Y11725D02*
X29200Y11225D01*
X28800Y9275D02*
Y11059D01*
X28534Y11325D02*
X28800Y11059D01*
X28500Y22950D02*
X28800Y22650D01*
X28425Y20900D02*
X28800Y21275D01*
X28525Y14900D02*
X28800Y15175D01*
X35475Y18125D02*
X38100Y15500D01*
X35093Y24575D02*
X38168Y21500D01*
X38525Y6550D02*
X38550Y6525D01*
X38525Y6550D02*
X38701Y6726D01*
X34050Y6925D02*
X35593D01*
X38168Y9500D01*
X38701Y6726D02*
X38752D01*
X1400Y20101D02*
Y20175D01*
X27600Y8900D02*
X28425D01*
X27650Y14900D02*
X28525D01*
X27600Y20900D02*
X28425D01*
X28784Y6075D02*
X28784Y6075D01*
X39575D01*
D37*
X20550Y9000D02*
D03*
X18850D02*
D03*
D40*
X13300Y9425D02*
D03*
Y11125D02*
D03*
X6000Y22125D02*
D03*
Y23825D02*
D03*
X7500Y22125D02*
D03*
Y23825D02*
D03*
X9000Y22125D02*
D03*
Y23825D02*
D03*
X9500Y8075D02*
D03*
Y6375D02*
D03*
X10975Y22125D02*
D03*
Y23825D02*
D03*
X15600Y6375D02*
D03*
Y8075D02*
D03*
X17200Y6375D02*
D03*
Y8075D02*
D03*
X20000Y23825D02*
D03*
Y22125D02*
D03*
X18400Y23825D02*
D03*
Y22125D02*
D03*
X12375Y23850D02*
D03*
Y22150D02*
D03*
X13325Y6375D02*
D03*
Y8075D02*
D03*
X22200Y9225D02*
D03*
Y10925D02*
D03*
X21650Y23825D02*
D03*
Y22125D02*
D03*
X16575Y23850D02*
D03*
Y22150D02*
D03*
X15175Y23850D02*
D03*
Y22150D02*
D03*
X13775Y23850D02*
D03*
Y22150D02*
D03*
X11625Y6375D02*
D03*
Y8075D02*
D03*
X6800Y6375D02*
D03*
Y8075D02*
D03*
D44*
X34350Y11405D02*
D03*
Y10135D02*
D03*
Y8865D02*
D03*
Y7595D02*
D03*
Y23405D02*
D03*
Y22135D02*
D03*
Y20865D02*
D03*
Y19595D02*
D03*
Y17405D02*
D03*
Y16135D02*
D03*
Y14865D02*
D03*
Y13595D02*
D03*
D45*
X38168Y9500D02*
D03*
Y21500D02*
D03*
Y15500D02*
D03*
D48*
X21925Y7375D02*
D03*
X18925D02*
D03*
D50*
X21600Y17850D02*
D03*
Y17350D02*
D03*
Y18350D02*
D03*
Y16350D02*
D03*
Y15850D02*
D03*
Y16850D02*
D03*
Y14850D02*
D03*
Y14350D02*
D03*
Y15350D02*
D03*
Y13350D02*
D03*
Y12850D02*
D03*
Y13850D02*
D03*
X13000Y18350D02*
D03*
Y17850D02*
D03*
Y16350D02*
D03*
Y15850D02*
D03*
Y17350D02*
D03*
Y16850D02*
D03*
Y14850D02*
D03*
Y14350D02*
D03*
Y15350D02*
D03*
Y13850D02*
D03*
Y13350D02*
D03*
D51*
X20050Y19900D02*
D03*
X17550D02*
D03*
X18050D02*
D03*
X16550D02*
D03*
X17050D02*
D03*
X19050D02*
D03*
X19550D02*
D03*
X18550D02*
D03*
X18050Y11300D02*
D03*
X18550D02*
D03*
X17050D02*
D03*
X17550D02*
D03*
X19550D02*
D03*
X20050D02*
D03*
X19050D02*
D03*
X15550Y19900D02*
D03*
X16050D02*
D03*
X14550D02*
D03*
X15050D02*
D03*
X16050Y11300D02*
D03*
X16550D02*
D03*
X15550D02*
D03*
X14550D02*
D03*
X15050D02*
D03*
D52*
X13000Y12850D02*
D03*
D54*
X19100Y15350D02*
X19100D01*
X15575Y6375D02*
X16375Y5575D01*
X18050Y8421D02*
X18400Y8071D01*
Y7775D02*
Y8071D01*
X18225Y7600D02*
X18400Y7775D01*
X18550Y9300D02*
X18850Y9000D01*
X17516Y24500D02*
Y24650D01*
X11575D02*
X17516D01*
X14550Y9975D02*
Y10376D01*
X12475Y8604D02*
X13298Y9427D01*
X10750Y23825D02*
X11575Y24650D01*
X17686Y3150D02*
X18436Y2400D01*
X16600Y2700D02*
X17050Y3150D01*
X17686D01*
X13300Y9425D02*
X14000D01*
X18050Y6250D02*
X18925Y7125D01*
X18050Y5846D02*
Y6250D01*
X17779Y5575D02*
X18050Y5846D01*
X16375Y5575D02*
X17779D01*
X11475Y6225D02*
X11625Y6375D01*
X11475Y5425D02*
Y6225D01*
X11625Y6375D02*
X12475Y7225D01*
Y8604D01*
X14000Y9425D02*
X14550Y9975D01*
X14550Y10376D02*
Y11300D01*
X11350Y5425D02*
X11475D01*
X10750Y23825D02*
X10975D01*
X18650Y2400D02*
X18700D01*
X18436D02*
X18650D01*
X21650Y10375D02*
X22200Y10925D01*
X20287Y10375D02*
X21650D01*
X20050Y10612D02*
X20287Y10375D01*
X20050Y10612D02*
Y11300D01*
X21079Y9850D02*
X21350Y9579D01*
Y7950D02*
Y9579D01*
Y7950D02*
X21925Y7375D01*
X20105Y9850D02*
X21079D01*
X19550Y10405D02*
X20105Y9850D01*
X20375Y9150D02*
Y9150D01*
X20175Y9350D02*
X20375Y9150D01*
X19893Y9350D02*
X20175D01*
X19050Y10193D02*
X19893Y9350D01*
X18050Y8421D02*
Y9579D01*
X18050Y9579D01*
Y11300D01*
X19550Y10405D02*
Y11300D01*
X18925Y7125D02*
Y7375D01*
X19050Y10193D02*
Y11300D01*
X18550Y9300D02*
Y11300D01*
X15800Y1600D02*
X15975Y1775D01*
X16325D01*
X16600Y2050D01*
Y2700D01*
D56*
X20102Y7100D02*
X21227Y5975D01*
X19127Y7100D02*
X20102D01*
X21227Y5975D02*
X22300D01*
X2450Y14150D02*
Y20507D01*
X3188Y21245D01*
X13217Y1140D02*
X14840D01*
X12957Y1400D02*
X13217Y1140D01*
X11331Y1400D02*
X12957D01*
X8875Y23700D02*
X9000Y23825D01*
X8875Y23200D02*
Y23700D01*
X7375Y23700D02*
X7500Y23825D01*
X7375Y23176D02*
Y23700D01*
X5868Y23693D02*
X6000Y23825D01*
X5868Y23200D02*
Y23693D01*
X3188Y21245D02*
X3740D01*
X11081Y1650D02*
X11331Y1400D01*
X14840Y1140D02*
X15300Y1600D01*
X11065Y1650D02*
X11081D01*
X15300Y1600D02*
X15800D01*
D57*
X5985Y1650D02*
D03*
X7255Y4190D02*
D03*
X11065Y1650D02*
D03*
X8525D02*
D03*
X12335Y4190D02*
D03*
X9795D02*
D03*
X3840Y21245D02*
D03*
Y18705D02*
D03*
X1300Y22515D02*
D03*
X3840Y16165D02*
D03*
Y13625D02*
D03*
X1300Y19975D02*
D03*
Y14895D02*
D03*
Y17435D02*
D03*
D58*
X43000Y21500D02*
D03*
X43000Y15500D02*
D03*
X43000Y9500D02*
D03*
X33500Y2975D02*
D03*
X27500Y2975D02*
D03*
D59*
X18175Y7450D02*
D03*
X23150Y7750D02*
D03*
X24100Y15125D02*
D03*
Y15925D02*
D03*
X19925Y17700D02*
D03*
X20300Y16675D02*
D03*
X14951Y9975D02*
D03*
X8375Y16076D02*
D03*
X9600Y14401D02*
D03*
X8600Y15275D02*
D03*
X7700Y13900D02*
D03*
X8950Y13925D02*
D03*
X9800Y16075D02*
D03*
X10250Y14875D02*
D03*
X8425Y8400D02*
D03*
X11525Y15950D02*
D03*
X10900Y15425D02*
D03*
X8325Y13375D02*
D03*
X7775Y12600D02*
D03*
X11501Y11876D02*
D03*
X12725Y11800D02*
D03*
X11501Y12676D02*
D03*
X19100Y5975D02*
D03*
X9475Y5325D02*
D03*
X10675Y5150D02*
D03*
X11725Y11100D02*
D03*
X1600Y4950D02*
D03*
X14550Y18350D02*
D03*
X15200Y17400D02*
D03*
X16450Y15425D02*
D03*
X18576Y21151D02*
D03*
X19874Y21551D02*
D03*
X18600Y22325D02*
D03*
X19100Y17125D02*
D03*
Y15525D02*
D03*
X16618Y12550D02*
D03*
X19100Y13925D02*
D03*
X15300Y4850D02*
D03*
X16350Y4375D02*
D03*
X4400Y3875D02*
D03*
X3100Y12200D02*
D03*
X7050Y9200D02*
D03*
X12400Y2700D02*
D03*
X6975Y5350D02*
D03*
X11475Y5425D02*
D03*
X13275Y6700D02*
D03*
X3250Y20176D02*
D03*
X3125Y3050D02*
D03*
X7225Y2900D02*
D03*
X7250Y1500D02*
D03*
X12650Y550D02*
D03*
X23850Y23175D02*
D03*
Y22375D02*
D03*
X20650Y21025D02*
D03*
X20776Y20226D02*
D03*
X18600Y23650D02*
D03*
X17491Y24500D02*
D03*
X16550Y23800D02*
D03*
X15100Y23850D02*
D03*
X10975Y23825D02*
D03*
X5200Y14500D02*
D03*
X4925Y22100D02*
D03*
X6050Y21100D02*
D03*
X2925Y22400D02*
D03*
X700Y21425D02*
D03*
X5450Y4825D02*
D03*
X1350Y3025D02*
D03*
X5275Y2900D02*
D03*
X16050Y13075D02*
D03*
X9150Y3150D02*
D03*
X23150Y8875D02*
D03*
X23150Y10025D02*
D03*
X23825Y6025D02*
D03*
X6225Y17550D02*
D03*
X7475Y18400D02*
D03*
X1525Y16175D02*
D03*
X3800Y17400D02*
D03*
X700Y13800D02*
D03*
X16175Y9900D02*
D03*
X14400Y13200D02*
D03*
X19900Y500D02*
D03*
X23600D02*
D03*
X11300D02*
D03*
X7050Y10700D02*
D03*
X4800Y1400D02*
D03*
X3100D02*
D03*
X1350Y1325D02*
D03*
X10675Y3150D02*
D03*
X22200Y12000D02*
D03*
X10050Y24500D02*
D03*
X11800Y20800D02*
D03*
X4750Y24250D02*
D03*
X1875Y12250D02*
D03*
X23625Y2375D02*
D03*
X20050Y3125D02*
D03*
X22076Y2400D02*
D03*
X22575Y1700D02*
D03*
X11149Y19702D02*
D03*
X10374Y19951D02*
D03*
X11950Y19700D02*
D03*
X5868Y23200D02*
D03*
X7375Y23176D02*
D03*
X8875Y23200D02*
D03*
X13525Y23850D02*
D03*
X12225D02*
D03*
X16500Y500D02*
D03*
X38625Y625D02*
D03*
X3125Y4775D02*
D03*
X19725Y4900D02*
D03*
X18425Y4975D02*
D03*
X24100Y11350D02*
D03*
X21775Y4750D02*
D03*
X5000Y20300D02*
D03*
X750Y18750D02*
D03*
Y24250D02*
D03*
X13500Y5000D02*
D03*
X9800Y2025D02*
D03*
X39400Y18500D02*
D03*
X38550Y18675D02*
D03*
X38752Y6726D02*
D03*
X24100Y12150D02*
D03*
X21075Y3250D02*
D03*
X17200Y1425D02*
D03*
X14000Y3700D02*
D03*
X17400Y2500D02*
D03*
D60*
X25600Y16100D02*
D03*
X26400Y19700D02*
D03*
X25600D02*
D03*
X2125Y13776D02*
D03*
X25600Y15300D02*
D03*
Y13700D02*
D03*
Y22100D02*
D03*
X26400Y7700D02*
D03*
Y8500D02*
D03*
Y9300D02*
D03*
Y10100D02*
D03*
X25600D02*
D03*
Y9300D02*
D03*
Y8500D02*
D03*
Y7700D02*
D03*
X26400Y13700D02*
D03*
Y14500D02*
D03*
Y15300D02*
D03*
Y16100D02*
D03*
X25600Y14500D02*
D03*
X26400Y20500D02*
D03*
Y21300D02*
D03*
Y22100D02*
D03*
X25600Y21300D02*
D03*
Y20500D02*
D03*
D61*
X39300Y7700D02*
D03*
X40100D02*
D03*
X39300Y8300D02*
D03*
X40100D02*
D03*
X39300Y8900D02*
D03*
X40100D02*
D03*
X39300Y9500D02*
D03*
X40100D02*
D03*
X39300Y10100D02*
D03*
X40100D02*
D03*
X39300Y13700D02*
D03*
X40100D02*
D03*
X39300Y14300D02*
D03*
X40100D02*
D03*
X39300Y14900D02*
D03*
X40100D02*
D03*
X39300Y15500D02*
D03*
X40100D02*
D03*
X39300Y16100D02*
D03*
X40100D02*
D03*
X39300Y19700D02*
D03*
X40100D02*
D03*
Y20300D02*
D03*
X39300D02*
D03*
Y20900D02*
D03*
X40100D02*
D03*
X39300Y21500D02*
D03*
X40100D02*
D03*
X40100Y22100D02*
D03*
X39300D02*
D03*
D62*
X22675Y5650D02*
D03*
D63*
X21050Y3350D02*
D03*
D64*
Y2400D02*
D03*
Y1450D02*
D03*
X18650Y3350D02*
D03*
Y2400D02*
D03*
Y1450D02*
D03*
D65*
X17300Y15600D02*
D03*
D66*
X32000Y8900D02*
D03*
X26000D02*
D03*
X32000Y14900D02*
D03*
X26000D02*
D03*
X32000Y20900D02*
D03*
X26000D02*
D03*
D67*
X34050Y6925D02*
D03*
X33650D02*
D03*
X31000Y12125D02*
D03*
X31400D02*
D03*
X30200Y8900D02*
D03*
X30600D02*
D03*
X27600D02*
D03*
X27200D02*
D03*
X30500Y14900D02*
D03*
X30900D02*
D03*
X27600D02*
D03*
X27200D02*
D03*
X31925Y24575D02*
D03*
X32325D02*
D03*
X31275Y23775D02*
D03*
X31675D02*
D03*
X30500Y20900D02*
D03*
X30900D02*
D03*
X27600D02*
D03*
X27200D02*
D03*
X32600Y18125D02*
D03*
X33000D02*
D03*
X31100Y17725D02*
D03*
X31500D02*
D03*
D68*
X15800Y1600D02*
D03*
Y4600D02*
D03*
M02*
